<?xml version="1.0" encoding="UTF-8" standalone="no"?>
<!DOCTYPE svg PUBLIC "-//W3C//DTD SVG 1.1//EN" "http://www.w3.org/Graphics/SVG/1.1/DTD/svg11.dtd">
<svg width="100%" height="100%" viewBox="0 0 3509 208" version="1.1" xmlns="http://www.w3.org/2000/svg" xmlns:xlink="http://www.w3.org/1999/xlink" xml:space="preserve" xmlns:serif="http://www.serif.com/" style="fill-rule:evenodd;clip-rule:evenodd;stroke-linejoin:round;stroke-miterlimit:2;">
    <g transform="matrix(1,0,0,1,-44649.5,-250347)">
        <g transform="matrix(4.4729,0,0,0.443637,43595,249944)">
            <g transform="matrix(1.43656,0,0,14.4839,-59860.7,-3.42559e+06)">
                <g>
                    <g transform="matrix(1.02963,0,0,1,-1239.27,0)">
                        <text x="41829.6px" y="236605px" style="font-family:'Montserrat-SemiBold', 'Montserrat';font-weight:600;font-size:44.821px;fill:white;">U<tspan x="41867.1px 41903.4px 41935.5px 41970.5px 41985px 42017.2px 42051.4px 42080.2px " y="236605px 236605px 236605px 236605px 236605px 236605px 236605px 236605px ">BER EATS</tspan></text>
                    </g>
                    <g transform="matrix(1.02963,0,0,1,-1248.28,0)">
                        <text x="42133.8px" y="236605px" style="font-family:'Montserrat-SemiBold', 'Montserrat';font-weight:600;font-size:44.821px;fill:rgb(54,220,164);">P<tspan x="42168.1px 42203px 42235.2px 42280.1px 42296.6px 42334.1px " y="236605px 236605px 236605px 236605px 236605px 236605px ">REMIUM</tspan></text>
                    </g>
                </g>
            </g>
        </g>
    </g>
</svg>
